<?xml version="1.0" encoding="utf-8"?>
<!-- Generator: Adobe Illustrator 16.0.0, SVG Export Plug-In . SVG Version: 6.00 Build 0)  -->
<!DOCTYPE svg PUBLIC "-//W3C//DTD SVG 1.1//EN" "http://www.w3.org/Graphics/SVG/1.1/DTD/svg11.dtd">
<svg version="1.1" id="Layer_1" xmlns="http://www.w3.org/2000/svg" xmlns:xlink="http://www.w3.org/1999/xlink" x="0px" y="0px"
	 width="224px" height="224px" viewBox="0 0 224 224" enable-background="new 0 0 224 224" xml:space="preserve">
<g>
	<path fill="#FFFFFF" d="M177.971,111.252C177.639,107.508,175.1,88,157.428,78c-25.297,0-37.242,0-42.889,0c0,0-0.008,0-5.061,0
		c-5.646,0-17.588,0-42.883,0c-17.67,10-20.213,29.508-20.543,33.252c0,0-0.044,0.206-0.027,0.413
		C46.009,111.88,46,111.958,46,111.958S48.926,135,66.596,145c25.291,0,37.236,0,42.883,0c0,0,0.004,0,5.061,0
		c5.646,0,17.592,0,42.884,0c17.674-10,20.213-29.252,20.544-33.001c0,0,0.048-0.167,0.029-0.387
		C178.014,111.414,177.971,111.252,177.971,111.252z M148.871,136h-74V87h74V136z M169.871,112h-9v9h-9v-10h9v-9h9V112z"/>
	<g>
		<path fill="#FFFFFF" d="M223.871,224h-224V0h191.939l32.061,31.932V224z M3.871,220h216V33.602L190.166,4H3.871V220z"/>
	</g>
</g>
</svg>
