<?xml version="1.0" encoding="utf-8"?>
<!-- Generator: Adobe Illustrator 16.0.0, SVG Export Plug-In . SVG Version: 6.00 Build 0)  -->
<!DOCTYPE svg PUBLIC "-//W3C//DTD SVG 1.1//EN" "http://www.w3.org/Graphics/SVG/1.1/DTD/svg11.dtd">
<svg version="1.1" id="Layer_1" xmlns="http://www.w3.org/2000/svg" xmlns:xlink="http://www.w3.org/1999/xlink" x="0px" y="0px"
	 width="224px" height="224px" viewBox="0 0 224 224" enable-background="new 0 0 224 224" xml:space="preserve">
<g>
	<path fill="#FFFFFF" d="M156.143,101h-16.099h-7.647h-19.301c-0.138-1-0.232-2.897-0.232-4.624
		c0.096-9.712,2.742-22.628,17.42-29.052c1.65-0.723,2.406-2.633,1.693-4.291c-0.724-1.65-2.646-2.403-4.297-1.678
		c-17.885,7.765-21.435,24.293-21.339,35.019c0,1.684,0.076,3.626,0.197,4.626H64.093c-11.709,5-19.98,16.172-19.98,29.561
		c0,17.582,14.266,31.748,31.85,31.748c11.064,0,20.805-5.309,26.512-14.309h15.287c5.703,9,15.443,14.32,26.504,14.32
		c17.592,0,31.848-14.23,31.848-31.812C176.111,117.12,167.841,106,156.143,101z M93.484,135h-14v13h-9v-13h-13v-9h13v-13h9v13h14
		V135z M139.562,145.247c-4.313,0-7.812-3.498-7.812-7.812s3.497-7.815,7.812-7.815c4.322,0,7.82,3.502,7.82,7.815
		C147.384,141.749,143.887,145.247,139.562,145.247z M156.775,131.6c-4.312,0-7.811-3.502-7.811-7.812
		c0-4.322,3.497-7.813,7.811-7.813c4.314,0,7.812,3.491,7.812,7.813C164.589,128.098,161.091,131.6,156.775,131.6z"/>
	<g>
		<path fill="#FFFFFF" d="M223.484,224h-224V0h190.434l33.566,31.928V224L223.484,224z M3.484,220h216V33.605L188.283,4H3.484V220z"
			/>
	</g>
</g>
</svg>
