<?xml version="1.0" encoding="utf-8"?>
<!-- Generator: Adobe Illustrator 16.0.0, SVG Export Plug-In . SVG Version: 6.00 Build 0)  -->
<!DOCTYPE svg PUBLIC "-//W3C//DTD SVG 1.1//EN" "http://www.w3.org/Graphics/SVG/1.1/DTD/svg11.dtd">
<svg version="1.1" id="Layer_1" xmlns="http://www.w3.org/2000/svg" xmlns:xlink="http://www.w3.org/1999/xlink" x="0px" y="0px"
	 width="224px" height="224px" viewBox="0 0 224 224" enable-background="new 0 0 224 224" xml:space="preserve">
<g>
	<g>
		<path fill="#FFFFFF" d="M114.002,43.631C78.682,43.631,50,72.266,50,107.586V176h21v-13h17v13h17v-13h18v13h16v-13h18v13h21
			v-68.415C178,72.266,149.322,43.631,114.002,43.631z M96,96h-9v27h-9V88h18V96z M149,96h-10v27h-8V88h18V96z"/>
	</g>
	<g>
		<path fill="#FFFFFF" d="M224,224H0V0h191.695L224,31.816V224z M4,220h216V33.471L190.038,4H4V220z"/>
	</g>
</g>
</svg>
