<?xml version="1.0" encoding="utf-8"?>
<!-- Generator: Adobe Illustrator 16.0.0, SVG Export Plug-In . SVG Version: 6.00 Build 0)  -->
<!DOCTYPE svg PUBLIC "-//W3C//DTD SVG 1.1//EN" "http://www.w3.org/Graphics/SVG/1.1/DTD/svg11.dtd">
<svg version="1.1" id="Layer_1" xmlns="http://www.w3.org/2000/svg" xmlns:xlink="http://www.w3.org/1999/xlink" x="0px" y="0px"
	 width="256.475px" height="69.935px" viewBox="0 0 256.475 69.935" enable-background="new 0 0 256.475 69.935"
	 xml:space="preserve">
<g>
	<g>
		<path fill="#FFFFFF" d="M4.968,26.247h8.486c4.922,0,6.158,4.068,6.158,9.273c0,6.428-2.029,9.12-6.158,9.12H4.968V26.247z
			 M12.956,40.521c1.412,0,1.855-1.484,1.855-5.026c0-4.547-0.689-5.127-1.855-5.127H9.767v10.153H12.956z"/>
		<path fill="#FFFFFF" d="M21.194,31.297h4.258l0.545,1.686c0.422-0.904,1.533-1.814,2.844-1.814c0.447,0,0.768,0,1.164,0.129v4.674
			H28.05c-0.988,0-2.053,0-2.053,1.508v7.16h-4.803V31.297z"/>
		<path fill="#FFFFFF" d="M36.856,31.168c4.604,0,6.16,1.689,6.16,6.987c0,4.951-1.436,6.607-6.16,6.607
			c-4.627,0-6.16-1.834-6.16-6.607C30.696,32.704,32.306,31.168,36.856,31.168z M36.856,41.146c1.363,0,1.363-0.201,1.363-2.99
			c0-2.885,0.023-3.366-1.363-3.366c-1.459,0-1.359,0.502-1.359,3.366C35.497,40.794,35.599,41.146,36.856,41.146z"/>
		<path fill="#FFFFFF" d="M44.552,31.297h4.008l0.791,1.307c0.818-0.777,1.607-1.533,3.611-1.533c3.414,0,3.812,2.211,3.812,5.027
			v8.542h-4.801v-8.641c0-1.061-0.273-1.311-0.818-1.311c-0.914,0-1.508,0.25-1.805,0.93v9.022h-4.799V31.297z"/>
		<path fill="#FFFFFF" d="M63.872,31.196c4.377,0,6.014,0.553,6.014,4.973c0,2.741-1.51,3.569-3.883,3.569h-3.07
			c0,1.811,1.16,1.428,2.994,1.428c1.781,0,1.855,0,3.711-0.271v3.166c-1.734,0.807-5.121,0.703-7.176,0.703
			c-3.34,0-4.33-2.234-4.33-6.861C58.132,32.358,59.616,31.196,63.872,31.196z M64.368,36.653c0.418,0,0.717-0.332,0.717-0.807
			c0-0.908-0.025-1.283-0.865-1.283c-1.039,0-1.336,0.176-1.287,2.09H64.368z"/>
	</g>
	<g>
		<path fill="#FFFFFF" d="M139.244,26.227h1.41v18.391h-1.41V26.227z"/>
		<path fill="#FFFFFF" d="M143.846,31.276h0.965l0.443,1.562c1.482-0.906,3.018-1.787,5.021-1.787c2.623,0,4.061,2.059,4.061,4.27
			v9.297h-1.412v-9.297c0-1.758-1.062-2.836-2.648-2.836c-2.051,0-3.141,0.502-5.021,1.457v10.676h-1.408V31.276z"/>
		<path fill="#FFFFFF" d="M155.99,31.629l2.326-0.381l0.371-3.717h1.039v3.717h4.008v1.436h-4.008v7.184
			c0,2.766,0.916,3.141,1.709,3.316c0,0,1.904,0.428,2.076,0.428v1.006h-2.004c-1.955,0-3.191-1.283-3.191-4.75v-7.184h-2.326
			V31.629z"/>
		<path fill="#FFFFFF" d="M171.428,31.174c3.068,0,5.023,0.305,5.023,4.725c0,1.961-1.09,2.838-3.391,2.838h-5.713
			c0,3.82,0.914,4.57,2.92,4.57c2.275,0,4.084-0.049,5.936-0.326v1.055c-2.006,0.582-3.885,0.705-5.936,0.705
			c-3.363-0.023-4.332-1.732-4.332-6.859C165.936,31.956,167.496,31.174,171.428,31.174z M173.061,37.331
			c1.189,0,1.98-0.273,1.98-1.432c0-3.014-0.844-3.289-3.586-3.289c-3.02,0-4.107,0.275-4.107,4.721H173.061z"/>
		<path fill="#FFFFFF" d="M179.197,31.276h0.967l0.443,1.686c1.51-0.881,2.967-1.836,5.07-1.836c0.721,0,1.463,0.049,1.832,0.199
			v1.408c-0.398-0.1-1.111-0.15-1.832-0.15c-2.053,0-3.164,0.605-5.07,1.537v10.499h-1.41V31.276z"/>
		<path fill="#FFFFFF" d="M189.166,39.919c0-2.059,1.24-3.34,3.293-3.34c0,0,5.664,0.023,5.664,0c0,0,0.027-1.661,0-1.69
			c0-1.6-0.768-2.482-2.449-2.482c-1.783,0-3.734,0.15-6.084,0.402V31.78c1.631-0.455,3.686-0.729,6.16-0.758
			c2.053-0.021,3.783,1.109,3.783,3.867v9.729h-1.039l-0.371-1.609c-0.051,0-3.365,1.76-5.664,1.76c-1.811,0-3.293-1.182-3.293-3.32
			V39.919z M192.459,43.335c1.979,0.031,5.664-1.355,5.664-1.355v-4.318l-5.664,0.348c-1.387,0.102-1.883,0.955-1.883,2.012v1.307
			C190.576,42.86,191.494,43.335,192.459,43.335z"/>
		<path fill="#FFFFFF" d="M206.609,31.153c1.287,0,3.711,0.326,5.391,0.652v1.004c0,0-3.189-0.227-5.391-0.227
			c-1.756,0-2.92,0.479-2.92,5.454c0,4.295,1.014,5.271,2.92,5.271c2.277,0,5.566-0.35,5.566-0.35v1.055
			c-2.004,0.578-3.514,0.705-5.566,0.729c-2.449,0-4.33-0.953-4.33-6.803C202.279,32.106,204.082,31.153,206.609,31.153z"/>
		<path fill="#FFFFFF" d="M213.809,31.629l2.324-0.381l0.375-3.717h1.033v3.717h4.01v1.436h-4.01v7.184
			c0,2.766,0.922,3.141,1.711,3.316c0,0,1.904,0.428,2.076,0.428v1.006h-2.002c-1.957,0-3.193-1.283-3.193-4.75v-7.184h-2.324
			V31.629z"/>
		<path fill="#FFFFFF" d="M223.756,27.663c0-0.332,0.17-0.529,0.492-0.529h0.914c0.299,0,0.471,0.229,0.471,0.529v1.402
			c0,0.328-0.199,0.504-0.471,0.504h-0.914c-0.297,0-0.492-0.199-0.492-0.504V27.663z M223.951,31.276h1.41v13.342h-1.41V31.276z"/>
		<path fill="#FFFFFF" d="M229.076,31.276l4.451,11.258l4.525-11.258h1.508l-5.344,13.342h-1.434l-5.244-13.342H229.076z"/>
		<path fill="#FFFFFF" d="M246.49,31.174c3.066,0,5.018,0.305,5.018,4.725c0,1.961-1.086,2.838-3.383,2.838h-5.719
			c0,3.82,0.918,4.57,2.924,4.57c2.271,0,4.078-0.049,5.934-0.326v1.055c-2.004,0.582-3.885,0.705-5.934,0.705
			c-3.369-0.023-4.334-1.732-4.334-6.859C240.996,31.956,242.555,31.174,246.49,31.174z M248.125,37.331
			c1.182,0,1.977-0.273,1.977-1.432c0-3.014-0.842-3.289-3.586-3.289c-3.02,0-4.109,0.275-4.109,4.721H248.125z"/>
	</g>
	<g>
		<polygon fill="#FFFFFF" points="118.839,37.3 78.331,60.298 86.532,64.968 118.839,46.628 		"/>
		<polygon fill="#FFFFFF" points="122.794,35.069 122.794,44.37 131.289,39.562 131.289,30.223 		"/>
		<path fill="#FFFFFF" d="M86.812,4.967l-8.496,4.834v45.792l48.828-27.721L86.812,4.967z M86.812,41.116V14.625l23.334,13.246
			L86.812,41.116z"/>
	</g>
</g>
</svg>
