<?xml version="1.0" encoding="utf-8"?>
<!-- Generator: Adobe Illustrator 16.0.0, SVG Export Plug-In . SVG Version: 6.00 Build 0)  -->
<!DOCTYPE svg PUBLIC "-//W3C//DTD SVG 1.1//EN" "http://www.w3.org/Graphics/SVG/1.1/DTD/svg11.dtd">
<svg version="1.1" id="Layer_1" xmlns="http://www.w3.org/2000/svg" xmlns:xlink="http://www.w3.org/1999/xlink" x="0px" y="0px"
	 width="130.239px" height="130.237px" viewBox="0 0 130.239 130.237" enable-background="new 0 0 130.239 130.237"
	 xml:space="preserve">
<g>
	<polygon fill="#FFFFFF" points="45.331,42.742 45.331,71.881 70.999,57.312 	"/>
	<path fill="#FFFFFF" d="M65.12,3.101c-34.252,0-62.019,27.766-62.019,62.018c0,34.252,27.767,62.018,62.019,62.018
		s62.018-27.766,62.018-62.018C127.137,30.867,99.372,3.101,65.12,3.101z M35.983,37.435l9.347-5.316l44.363,25.193l-53.71,30.495
		V37.435z M80.56,77.945L45.023,98.119l-9.022-5.139L80.56,67.684V77.945z M94.255,70.172l-9.345,5.291V65.23l9.345-5.33V70.172z"/>
</g>
</svg>
