<?xml version="1.0" encoding="utf-8"?>
<!-- Generator: Adobe Illustrator 16.0.0, SVG Export Plug-In . SVG Version: 6.00 Build 0)  -->
<!DOCTYPE svg PUBLIC "-//W3C//DTD SVG 1.1//EN" "http://www.w3.org/Graphics/SVG/1.1/DTD/svg11.dtd">
<svg version="1.1" id="Layer_1" xmlns="http://www.w3.org/2000/svg" xmlns:xlink="http://www.w3.org/1999/xlink" x="0px" y="0px"
	 width="224px" height="224px" viewBox="0 0 224 224" enable-background="new 0 0 224 224" xml:space="preserve">
<g>
	<path fill="#FFFFFF" d="M140.869,96H79.871c-19.607,0-35.501,15.892-35.501,35.502C44.37,151.104,60.264,167,79.871,167h60.998
		c19.607,0,35.501-15.896,35.501-35.498C176.37,111.892,160.477,96,140.869,96z M144.926,113.219c3.574,0,6.471,2.896,6.471,6.467
		c0,3.566-2.896,6.463-6.471,6.463c-3.57,0-6.467-2.896-6.467-6.463C138.459,116.116,141.355,113.219,144.926,113.219z M89.742,136
		h-12v12h-8v-12h-13v-8h13v-13h8v13h12V136z M132.654,138.422c-3.567,0-6.463-2.893-6.463-6.463c0-3.576,2.896-6.477,6.463-6.477
		c3.574,0,6.471,2.899,6.471,6.477C139.125,135.53,136.229,138.422,132.654,138.422z M144.926,150.693
		c-3.57,0-6.467-2.896-6.467-6.471c0-3.567,2.896-6.463,6.467-6.463c3.574,0,6.471,2.896,6.471,6.463
		C151.396,147.797,148.5,150.693,144.926,150.693z M157.197,138.422c-3.57,0-6.471-2.893-6.471-6.463
		c0-3.576,2.899-6.477,6.471-6.477c3.57,0,6.467,2.899,6.467,6.477C163.664,135.53,160.768,138.422,157.197,138.422z M105.742,91
		L105.742,91h9l0,0l0,0V79.408v-0.121v-0.008c0-0.697,0.045-3.969,1.729-6.93c1.926-3.24,4.727-6.35,12.771-7.35
		c38.25,0,39.238,0,39.238,0c2.496,0,4.512-2.011,4.512-4.502c0-2.493-2.016-4.498-4.504-4.498c0,0-0.996,0-39.461,0h-0.189
		l-0.197,0.039c-10.76,0.809-17.094,6.447-20.041,11.938c-3.016,5.471-2.857,10.469-2.857,11.432c0,0.06,0,0.111,0,0.158L105.742,91
		L105.742,91z"/>
	<g>
		<path fill="#FFFFFF" d="M223.742,224h-224V0h190.433l33.567,31.928V224z M3.742,220h216V33.606L188.54,4H3.742V220z"/>
	</g>
</g>
</svg>
